<?xml version="1.0" encoding="UTF-8" standalone="no"?>
<svg
   xmlns:dc="http://purl.org/dc/elements/1.1/"
   xmlns:cc="http://creativecommons.org/ns#"
   xmlns:rdf="http://www.w3.org/1999/02/22-rdf-syntax-ns#"
   xmlns:svg="http://www.w3.org/2000/svg"
   xmlns="http://www.w3.org/2000/svg"
   xmlns:xlink="http://www.w3.org/1999/xlink"
   xmlns:sodipodi="http://sodipodi.sourceforge.net/DTD/sodipodi-0.dtd"
   xmlns:inkscape="http://www.inkscape.org/namespaces/inkscape"
   version="1.1"
   width="512"
   height="512"
   viewBox="0 0 100 100"
   id="svg1064"
   sodipodi:docname="icon.svg"
   inkscape:label="watch"
   inkscape:version="0.92.3 (2405546, 2018-03-11)">
  <metadata
     id="metadata1068">
    <rdf:RDF>
      <cc:Work
         rdf:about="">
        <dc:format>image/svg+xml</dc:format>
        <dc:type
           rdf:resource="http://purl.org/dc/dcmitype/StillImage" />
        <dc:title></dc:title>
      </cc:Work>
    </rdf:RDF>
  </metadata>
  <sodipodi:namedview
     pagecolor="#ffffff"
     bordercolor="#666666"
     borderopacity="1"
     objecttolerance="10"
     gridtolerance="10"
     guidetolerance="10"
     inkscape:pageopacity="0"
     inkscape:pageshadow="2"
     inkscape:window-width="1440"
     inkscape:window-height="840"
     id="namedview1066"
     showgrid="false"
     inkscape:zoom="0.921875"
     inkscape:cx="368.87918"
     inkscape:cy="234.94074"
     inkscape:window-x="0"
     inkscape:window-y="0"
     inkscape:window-maximized="1"
     inkscape:current-layer="svg1064" />
  <defs
     id="defs1048">
    <linearGradient
       id="Gradient_1"
       gradientUnits="userSpaceOnUse"
       x1="50"
       y1="73"
       x2="50"
       y2="-25"
       spreadMethod="pad">
      <stop
         offset="0%"
         stop-color="#D1D3D4"
         id="stop989" />
      <stop
         offset="100%"
         stop-color="#F1F2F2"
         id="stop991" />
    </linearGradient>
    <linearGradient
       id="Gradient_2"
       gradientUnits="userSpaceOnUse"
       x1="50"
       y1="70"
       x2="50"
       y2="-15"
       spreadMethod="pad">
      <stop
         offset="0%"
         stop-color="#E6E7E8"
         id="stop994" />
      <stop
         offset="100%"
         stop-color="#FFFFFF"
         id="stop996" />
    </linearGradient>
    <linearGradient
       id="Gradient_4"
       gradientUnits="userSpaceOnUse"
       x1="50"
       y1="47"
       x2="50"
       y2="-4"
       spreadMethod="pad">
      <stop
         offset="0%"
         stop-color="#FFFFFF"
         stop-opacity="0.09803921568627451"
         id="stop999" />
      <stop
         offset="100%"
         stop-color="#FFFFFF"
         stop-opacity="0.8"
         id="stop1001" />
    </linearGradient>
    <linearGradient
       id="Gradient_5"
       gradientUnits="userSpaceOnUse"
       x1="54"
       y1="58"
       x2="53.95"
       y2="-8"
       spreadMethod="pad">
      <stop
         offset="0%"
         stop-color="#FFFFFF"
         stop-opacity="0.09803921568627451"
         id="stop1004" />
      <stop
         offset="100%"
         stop-color="#FFFFFF"
         stop-opacity="0.8"
         id="stop1006" />
    </linearGradient>
    <linearGradient
       id="Gradient_6"
       gradientUnits="userSpaceOnUse"
       x1="46"
       y1="58"
       x2="46"
       y2="-8"
       spreadMethod="pad">
      <stop
         offset="0%"
         stop-color="#FFFFFF"
         stop-opacity="0.09803921568627451"
         id="stop1009" />
      <stop
         offset="100%"
         stop-color="#FFFFFF"
         stop-opacity="0.8"
         id="stop1011" />
    </linearGradient>
    <g
       id="top-1">
      <path
         fill="url(#Gradient_1)"
         stroke="none"
         d="  M 96.1 30.55  Q 92.3 21.6 85.35 14.65 78.45 7.75 69.5 3.95 60.2 0 50.05 0 39.85 0 30.55 3.95 21.6 7.75 14.7 14.65 7.75 21.6 3.95 30.55 0 39.85 0 50 0 60.2 3.95 69.5 7.75 78.45 14.7 85.35 21.6 92.25 30.55 96.05 39.85 100 50.05 100 60.2 100 69.5 96.05 78.45 92.25 85.35 85.35 92.3 78.45 96.1 69.5 100 60.2 100 50 100 39.85 96.1 30.55 Z"
         id="path1014" />
    </g>
    <g
       id="top-2">
      <path
         fill="url(#Gradient_2)"
         stroke="none"
         d="  M 89.85 66.85  Q 93.25 58.8 93.25 50 93.25 41.2 89.85 33.15 86.55 25.4 80.6 19.4 74.6 13.4 66.85 10.15 58.8 6.75 50 6.75 41.2 6.75 33.15 10.15 25.4 13.4 19.45 19.4 13.45 25.4 10.15 33.15 6.75 41.2 6.75 50 6.75 58.8 10.15 66.85 13.45 74.6 19.45 80.55 25.4 86.55 33.15 89.85 41.2 93.25 50 93.25 58.8 93.25 66.85 89.85 74.6 86.55 80.6 80.55 86.55 74.6 89.85 66.85 Z"
         id="path1017" />
    </g>
    <g
       id="background">
      <path
         fill="url(#background-gradient)"
         stroke="none"
         d="  M 87.7 65.9  Q 90.9 58.3 90.9 49.95 90.9 41.65 87.7 34 84.6 26.7 78.9 21 73.25 15.35 65.9 12.25 58.3 9.05 50 9.05 41.7 9.05 34 12.25 26.7 15.35 21 21 15.4 26.7 12.25 34 9.05 41.65 9.05 49.95 9.05 58.3 12.25 65.9 15.4 73.25 21 78.9 26.7 84.55 34 87.7 41.7 90.9 50 90.9 58.3 90.9 65.9 87.7 73.25 84.55 78.9 78.9 84.6 73.25 87.7 65.9 Z"
         id="path1020" />
    </g>
    <mask
       id="mask">
      <path
         fill="#FFFFFF"
         stroke="none"
         d="  M 87.75 65.95  Q 90.95 58.3 90.95 50 90.95 41.7 87.75 34.05 84.65 26.7 78.95 21.05 73.3 15.4 65.95 12.3 58.35 9.1 50.05 9.1 41.7 9.1 34.05 12.3 26.75 15.4 21.05 21.05 15.45 26.7 12.3 34.05 9.1 41.7 9.1 50 9.1 58.3 12.3 65.95 15.45 73.3 21.05 78.95 26.75 84.6 34.05 87.75 41.7 90.95 50.05 90.95 58.35 90.95 65.95 87.75 73.3 84.6 78.95 78.95 84.65 73.3 87.75 65.95 Z"
         id="path1023" />
    </mask>
    <g
       id="gloss-top">
      <path
         fill="url(#Gradient_4)"
         stroke="none"
         d="  M 90.8 46.7  Q 90.2 38.9 86.7 31.9 83.4 25.15 77.8 19.95 72.25 14.8 65.2 12 57.95 9.1 50.05 9.1 42.1 9.1 34.8 12 27.75 14.8 22.2 19.95 16.65 25.15 13.3 31.9 9.85 38.9 9.2 46.7 16.55 53.15 27.05 56.85 37.85 60.65 50.05 60.65 62.2 60.65 73 56.85 83.5 53.15 90.8 46.7 Z"
         id="path1026" />
    </g>
    <g
       id="gloss-right">
      <path
         fill="url(#Gradient_5)"
         stroke="none"
         d="  M 81.35 76.35  Q 85.95 70.9 88.4 64.25 90.95 57.4 90.95 50.05 90.95 41.7 87.75 34.05 84.65 26.75 78.95 21.05 73.3 15.45 65.95 12.3 58.35 9.1 50.05 9.1 40.05 9.1 31.25 13.65 22.75 18 17.05 25.75 18.75 36.1 24.4 45.25 29.9 54.25 38.55 61.15 47.25 68.05 58.1 71.95 69.2 76 81.35 76.35 Z"
         id="path1029" />
    </g>
    <g
       id="gloss-left">
      <path
         fill="url(#Gradient_6)"
         stroke="none"
         d="  M 68.75 13.65  Q 59.95 9.1 50.05 9.1 41.7 9.1 34.05 12.3 26.75 15.4 21.05 21.05 15.45 26.7 12.3 34.05 9.1 41.7 9.1 50 9.1 57.4 11.65 64.25 14.1 70.85 18.65 76.35 30.8 75.95 41.95 71.9 52.75 68 61.45 61.15 70.1 54.25 75.65 45.25 81.3 36.05 82.95 25.75 77.25 18 68.75 13.65 Z"
         id="path1032" />
    </g>
    <linearGradient
       id="background-gradient"
       x1="0"
       y1="0"
       y2="1"
       x2="0">
      <stop
         stop-color="#00ff00"
         offset="0%"
         id="stop1035" />
      <stop
         stop-color="#337300"
         offset="100%"
         id="stop1037" />
    </linearGradient>
    <g
       transform="scale(6.938180757574575) translate(0 3.42900013923645)"
       id="picture">
      <path
         d="M2.754 7.555h-.91V2.362l.011-.502q.01-.253.016-.48.01-.233.015-.408-.088.093-.155.16t-.14.129l-.144.134-.186.16-.765.626L0 1.545 1.98 0h.774zm4.527-3.736L5.638 2.17l.543-.542L7.819 3.27l1.664-1.643.537.532L8.361 3.82l1.649 1.654L9.483 6 7.819 4.36 6.18 5.99l-.533-.532zm7.132 3.736h-.91V2.362l.01-.502q.01-.253.016-.48.01-.233.015-.408-.087.093-.155.16-.067.067-.14.129l-.144.134-.186.16-.765.626-.496-.636L13.638 0h.775z"
         id="path1040" />
    </g>
    <linearGradient
       id="picture-gradient"
       x1="0"
       y1="0"
       y2="1"
       x2="0">
      <stop
         stop-color="#ffffff"
         offset="0%"
         id="stop1043" />
      <stop
         stop-color="#c9c9c9"
         offset="100%"
         id="stop1045" />
    </linearGradient>
    <linearGradient
       inkscape:collect="always"
       xlink:href="#background-gradient"
       id="linearGradient5334"
       x1="50"
       y1="25"
       x2="100"
       y2="25"
       gradientUnits="userSpaceOnUse"
       gradientTransform="scale(5.12)" />
  </defs>
  <use
     xlink:href="#top-1"
     id="use1050"
     style="display:inline"
     x="0"
     y="0"
     width="100%"
     height="100%" />
  <path
     style="fill:url(#linearGradient5334);fill-opacity:1;fill-rule:evenodd;stroke-width:0.50000006"
     d="M 256 0.37695312 L 256 256 L 511.62305 256 A 255.62355 255.62355 0 0 0 256 0.37695312 z "
     transform="scale(0.1953125)"
     id="rect5326" />
  <use
     xlink:href="#top-2"
     id="use1052" />
  <use
     xlink:href="#background"
     fill="url(#background-gradient)"
     id="use1054" />
  <g
     mask="url(#mask)"
     id="g1060">
    <g
       transform="             translate(                                 50 50 )                             translate(0 0)  scale(0.6750000000000002)                               translate(                                 -50 -50 )"
       id="g1058">
      <use
         xlink:href="#picture"
         fill="url(#picture-gradient)"
         id="use1056" />
    </g>
  </g>
  <use
     xlink:href="#gloss-top"
     opacity="1"
     id="use1062" />
</svg>
